<?xml version="1.0" encoding="UTF-8" standalone="no"?>
<!-- Created with Inkscape (http://www.inkscape.org/) -->

<svg
   xmlns:svg="http://www.w3.org/2000/svg"
   xmlns="http://www.w3.org/2000/svg"
   version="1.1"
   width="143.14113"
   height="35.822807"
   id="svg2"
   xml:space="preserve"><defs
     id="defs6"><clipPath
       id="clipPath18"><path
         d="M 0,792 612,792 612,0.015 0,0.015 0,792 z"
         id="path20" /></clipPath><clipPath
       id="clipPath80"><path
         d="M 0,792 612,792 612,0.015 0,0.015 0,792 z"
         id="path82" /></clipPath></defs><g
     transform="matrix(1.25,0,0,-1.25,-63.242619,58.59375)"
     id="g12"><path
       d="m 80.388,38.908 -1.119,-0.42 c -1.455,-2.587 -2.93,-4.891 -4.474,-6.99 0,0 0.853,-0.055 1.377,-0.112 0.455,0.386 1.009,0.578 1.653,0.578 1.441,0 2.609,-1.169 2.609,-2.61 0,-1.441 -1.168,-2.609 -2.609,-2.609 -1.442,0 -2.61,1.168 -2.61,2.609 0,0.342 0.066,0.668 0.187,0.967 L 74.011,30.46 C 67.752,22.327 60.985,18.18 54.991,18.217 c -2.684,0.016 -4.598,2.479 -4.38,4.194 0.653,5.126 8.825,9.297 21.826,9.25 1.848,2.702 3.222,5.251 3.95,6.942 0.986,0.344 3.757,1.181 3.757,1.181 -0.837,2.662 -1.834,4.522 -3.438,4.762 0.14,0.42 0.373,0.792 0.373,0.792 0,0 6.011,-0.419 6.384,-1.304 0.373,-0.886 2.889,-11.371 2.889,-11.371 0,0 2.36,-8.732 4.361,-10.179 -1.584,-1.538 -2.011,-1.772 -3.234,-2.594 -4.291,4.831 -5.495,13.361 -7.091,19.018 z M 71.629,30.514 C 58.873,31.07 52.196,26.488 51.753,22.38 c -0.164,-1.507 1.141,-3.236 3.378,-3.278 6.398,-0.12 12.408,5.762 16.498,11.412 z m 39.54,-6.873 -4.044,0 c 0,0 -0.023,9.19 0,9.19 0,1.304 -0.97,2.302 -1.973,2.302 -0.98,0 -2.331,-0.955 -2.331,-1.002 l 0.006,-10.49 -4.044,0 0,9.096 c 0,1.305 -0.97,2.303 -1.974,2.303 -1.067,0 -2.429,-0.778 -2.429,-1.002 l 0,-10.397 -4.056,0 0,9.465 c 0,0 -0.412,3.798 -2.323,4.986 1.864,0.443 4.194,0.56 4.194,0.56 0,0 1.072,-0.699 2.144,-3.076 l 2.352,3.065 c 0.118,0.042 0.768,0.384 1.843,0.384 2.868,0 3.886,-1.54 4.217,-3.449 l 2.097,2.982 c 0.367,0.252 1.089,0.467 1.981,0.467 4.655,0 4.34,-3.256 4.34,-7.366 l 0,-8.018 z m 9.88,15.025 0.012,6.655 4.067,1.554 0,-22.185 -4.067,0 0.002,2.736 -2.987,-3.149 c -4.227,0 -5.88,3.42 -5.88,7.858 0,4.444 2.558,7.94 5.317,7.94 1.541,0 2.7,-0.5 3.536,-1.409 z m 0.013,-3.468 c -0.297,0.446 -1.182,0.867 -1.623,0.974 -1.614,0.394 -2.902,-1.61 -2.902,-4.009 0,-2.398 0.533,-4.597 3.14,-4.188 0.665,0.104 1.077,0.304 1.384,0.591 l 10e-4,6.632 z m 44.045,-7.099 c 0,-2.853 -2.863,-5.317 -6.986,-4.823 -1.202,0.145 -1.707,0.207 -3.028,0.57 l -1.173,4.447 c 0.84,-0.388 2.135,-1.331 3.393,-1.517 1.552,-0.23 3.509,0.053 3.509,1.452 0,1.681 -6.255,1.874 -6.255,5.901 0,3.499 2.465,5.415 6.588,4.921 1.202,-0.144 2.439,-0.541 3.62,-1.082 l 0,-4.26 c -0.508,0.679 -1.553,1.656 -2.812,1.843 -1.552,0.229 -2.724,0.179 -2.724,-1.406 0,-1.157 1.755,-1.577 3.241,-2.191 0.184,-0.076 2.627,-1.034 2.627,-3.855 z m -14.056,-4.532 c -0.475,-0.121 -0.975,-0.207 -1.497,-0.255 -4.888,-0.45 -7.269,3.354 -7.269,7.798 0,4.444 2.548,8.173 7.425,8.047 0.945,-0.025 1.895,-0.497 2.578,-1.056 l 0,-4.289 c -0.76,0.96 -1.823,1.493 -2.547,1.493 -2.214,0 -3.107,-1.768 -3.107,-4.166 0,-2.399 0.826,-4.276 3.24,-4.276 1.747,0 2.042,0.612 3.346,1.544 l -2.169,-4.84 z m -24.883,8.545 c 0,4.444 3.324,8.046 7.424,8.046 4.101,0 7.425,-3.231 7.425,-8.046 0,-4.444 -3.044,-7.921 -7.58,-7.921 -4.473,0 -7.269,3.478 -7.269,7.921 z m 4.101,0.029 c 0,-2.399 0.825,-4.276 3.24,-4.276 2.447,0 3.345,1.877 3.345,4.276 0,2.599 -1.048,4.343 -3.262,4.343 -2.213,0 -3.323,-1.945 -3.323,-4.343"
       id="path68"
       style="fill:#92979a;fill-opacity:1;fill-rule:evenodd;stroke:none" /></g></svg>